<svg xmlns="http://www.w3.org/2000/svg" viewBox="0 0 240 240" role="img" aria-labelledby="title desc">
  <title id="title">CIPHER Avatar</title>
  <desc id="desc">Cyberpunk smiley social engineer with chat icon, signal rings and sly smirk.</desc>
  <defs>
    <radialGradient id="cipher-ring" cx="50%" cy="38%" r="70%">
      <stop offset="0%" stop-color="#df7dff" stop-opacity="0.95"/>
      <stop offset="100%" stop-color="#2a0b3b"/>
    </radialGradient>
    <linearGradient id="cipher-face" x1="0%" y1="0%" x2="0%" y2="100%">
      <stop offset="0%" stop-color="#6a2f86"/>
      <stop offset="100%" stop-color="#2a0f3c"/>
    </linearGradient>
  </defs>

  <rect width="240" height="240" rx="28" fill="#0d0416"/>
  <circle cx="120" cy="120" r="94" fill="url(#cipher-ring)" stroke="#bf40ff" stroke-width="4"/>
  <circle cx="120" cy="124" r="60" fill="url(#cipher-face)"/>

  <g fill="none" stroke="#ff9bf6" stroke-width="4" stroke-linecap="round" opacity="0.72">
    <path d="M58 126c12-19 26-28 42-28"/>
    <path d="M182 98c16 0 30 9 42 28"/>
  </g>

  <circle cx="92" cy="108" r="11" fill="#ffb3ff"/>
  <rect x="136" y="104" width="24" height="8" rx="4" fill="#ffb3ff"/>

  <path d="M86 154c13 14 24 19 36 19 15 0 27-4 38-13" fill="none" stroke="#ff9bf6" stroke-width="8" stroke-linecap="round"/>

  <g fill="#ff8bf4" opacity="0.92">
    <rect x="166" y="68" width="34" height="24" rx="6"/>
    <path d="M172 92l9-6h-9z"/>
  </g>
  <rect x="174" y="76" width="17" height="4" rx="2" fill="#2a0d39"/>
  <rect x="174" y="84" width="12" height="4" rx="2" fill="#2a0d39"/>
</svg>
