<svg xmlns="http://www.w3.org/2000/svg" viewBox="0 0 240 240" role="img" aria-labelledby="title desc">
  <title id="title">NEXUS Avatar</title>
  <desc id="desc">Cyberpunk smiley hacker with hood, slit eyes and pixel grin.</desc>
  <defs>
    <radialGradient id="nexus-ring" cx="50%" cy="38%" r="70%">
      <stop offset="0%" stop-color="#19ff8e" stop-opacity="0.95"/>
      <stop offset="100%" stop-color="#013018"/>
    </radialGradient>
    <linearGradient id="nexus-face" x1="0%" y1="0%" x2="0%" y2="100%">
      <stop offset="0%" stop-color="#0b4222"/>
      <stop offset="100%" stop-color="#04170d"/>
    </linearGradient>
  </defs>

  <rect width="240" height="240" rx="28" fill="#010705"/>
  <circle cx="120" cy="120" r="94" fill="url(#nexus-ring)" stroke="#00ff70" stroke-width="4"/>

  <path d="M54 180c6-58 28-92 66-111 38 19 60 53 66 111z" fill="#031f10" stroke="#00ff70" stroke-opacity="0.45" stroke-width="3"/>
  <circle cx="120" cy="126" r="58" fill="url(#nexus-face)"/>

  <rect x="78" y="98" width="30" height="10" rx="3" fill="#00ff70"/>
  <rect x="132" y="98" width="30" height="10" rx="3" fill="#00ff70"/>

  <rect x="84" y="142" width="72" height="20" rx="3" fill="#00ff70"/>
  <g fill="#022012">
    <rect x="92" y="146" width="10" height="12"/>
    <rect x="108" y="146" width="10" height="12"/>
    <rect x="124" y="146" width="10" height="12"/>
    <rect x="140" y="146" width="10" height="12"/>
  </g>

  <g stroke="#00ff70" stroke-width="3" stroke-linecap="round" opacity="0.85">
    <path d="M72 74v-16"/>
    <path d="M168 74v-16"/>
    <circle cx="72" cy="54" r="3" fill="#00ff70"/>
    <circle cx="168" cy="54" r="3" fill="#00ff70"/>
  </g>
</svg>
